<?xml version="1.0" encoding="UTF-8"?>
<svg xmlns="http://www.w3.org/2000/svg" width="1000" height="1000" viewBox="-2998 -2955 106192 106192">
  <rect width="100%" height="100%" fill="white"/>
  <polygon points="97989,50290 97989,51491 97502,51491 97502,52723 97969,52723 97969,53929 97784,53929 97784,55111 97415,55111 97415,56355 97603,56355 97603,57620 97806,57620 97806,58795 97420,58795 97420,60036 97381,60036 97381,61082 96479,61082 96479,62403 96738,62403 96738,63461 95990,63461 95990,64680 95819,64680 95819,65812 95362,65812 95362,67051 95198,67051 95198,68160 94676,68160 94676,69290 94212,69290 94212,70413 93728,70413 93728,71204 92575,71204 92575,72650 92730,72650 92730,73331 91442,73331 91442,74529 91099,74529 91099,75554 90450,75554 90450,76726 90023,76726 90023,77816 89454,77816 89454,78682 88568,78682 88568,79549 87701,79549 87701,80687 87173,80687 87173,81723 86503,81723 86503,82480 85516,82480 85516,83576 84896,83576 84896,84275 83863,84275 83863,85339 83187,85339 83187,85797 81950,85797 81950,86483 80938,86483 80938,87077 79861,87077 79861,88209 79208,88209 79208,89104 78352,89104 78352,89637 77234,89637 77234,90451 76310,90451 76310,90829 75107,90829 75107,91245 73945,91245 73945,91916 72934,91916 72934,92396 71820,92396 71820,93211 70872,93211 70872,94077 69930,94077 69930,94527 68790,94527 68790,94258 67369,94258 67369,95368 66491,95368 66491,95479 65238,95479 65238,96120 64164,96120 64164,95840 62817,95840 62817,96910 61843,96910 61843,96748 60550,96748 60550,96930 59348,96930 59348,97072 58143,97072 58143,97949 57048,97949 57048,97240 55726,97240 55726,98112 54598,98112 54598,98237 53380,98237 53380,97914 52139,97914 52139,97992 50925,97992 50925,98410 49707,98410 49707,97863 48497,97863 48497,97485 47303,97485 47303,98306 46027,98306 46027,97967 44828,97967 44828,97098 43711,97098 43711,97154 42483,97154 42483,97339 41219,97339 41219,96502 40149,96502 40149,96571 38895,96571 38895,96615 37628,96615 37628,95738 36612,95738 36612,95467 35431,95467 35431,95568 34115,95568 34115,94799 33098,94799 33098,94374 31962,94374 31962,93971 30814,93971 30814,93488 29698,93488 29698,92987 28589,92987 28589,92387 27531,92387 27531,91964 26374,91964 26374,91195 25412,91195 25412,90587 24359,90587 24359,90142 23193,90142 23193,88876 22590,88876 22590,88559 21324,88559 21324,87802 20371,87802 20371,86713 19692,86713 19692,86217 18525,86217 18525,85067 17930,85067 17930,84389 16911,84389 16911,83742 15846,83742 15846,82958 14904,82958 14904,81974 14175,81974 14175,81240 13160,81240 13160,80274 12409,80274 12409,79076 11962,79076 11962,78077 11274,78077 11274,77102 10554,77102 10554,76169 9765,76169 9765,75200 9019,75200 9019,74195 8323,74195 8323,72908 8132,72908 8132,72167 6929,72167 6929,70969 6588,70969 6588,69949 5879,69949 5879,68497 6165,68497 6165,67407 5643,67407 5643,66510 4579,66510 4579,65176 4704,65176 4704,64177 3836,64177 3836,62896 3875,62896 3875,61817 3194,61817 3194,60482 3554,60482 3554,59411 2752,59411 2752,58208 2547,58208 2547,56980 2517,56980 2517,55823 1958,55823 1958,54524 2667,54524 2667,53339 2335,53339 2335,52126 2375,52126 2375,50925 2009,50925 2009,50270 94671,50270 94671,48487 1828,48487 1828,47303 2513,47303 2513,46074 2271,46074 2271,44890 2603,44890 2603,43602 2079,43602 2079,42477 2804,42477 2804,41220 2668,41220 2668,40118 3347,40118 3347,38850 3239,38850 3239,37808 4061,37808 4061,36600 4219,36600 4219,35259 3995,35259 3995,34127 4466,34127 4466,33015 4977,33015 4977,32062 5871,32062 5871,30606 5552,30606 5552,29497 6079,29497 6079,28474 6780,28474 6780,27581 7708,27581 7708,26356 8004,26356 8004,25160 8381,25160 8381,24143 9070,24143 9070,23088 9700,23088 9700,22283 10688,22283 10688,21165 11226,21165 11226,20507 12371,20507 12371,19452 12995,19452 12995,18580 13845,18580 13845,17660 14637,17660 14637,16652 15341,16652 15341,16010 16419,16010 16419,15192 17311,15192 17311,14185 18034,14185 18034,13675 19196,13675 19196,12791 20033,12791 20033,12200 21105,12200 21105,10904 21654,10904 21654,10593 22924,10593 22924,9648 23754,9648 23754,9111 24855,9111 24855,8201 25734,8201 25734,7917 26974,7917 26974,7749 28254,7749 28254,6483 28979,6483 28979,5864 30043,5864 30043,5557 31245,5557 31245,5054 32361,5054 32361,5264 33738,5264 33738,4569 34777,4569 34777,4441 36008,4441 36008,3722 37060,3722 37060,3583 38281,3583 38281,3084 39411,3084 39411,2546 40546,2546 40546,2210 41732,2210 41732,2116 42960,2116 42960,2271 44214,2271 44214,2396 45450,2396 45450,2291 46657,2291 46657,2476 47878,2476 47878,1871 49071,1871 49071,2077 50289,2077 50289,2199 51500,2199 51500,1876 52732,1876 52732,2410 53913,2410 53913,2140 55159,2140 55159,2707 56314,2707 56314,2740 57532,2740 57532,3112 58696,3112 58696,3343 59882,3343 59882,2828 61247,2828 61247,3779 62266,3779 62266,3854 63506,3854 63506,4047 64723,4047 64723,4846 65739,4846 65739,5010 66972,5010 66972,5441 68112,5441 68112,5931 69227,5931 69227,6172 70459,6172 70459,6919 71456,6919 71456,7579 72486,7579 72486,7942 73678,7942 73678,8504 74766,8504 74766,9270 75730,9270 75730,9968 76731,9968 76731,10498 77850,10498 77850,11140 78898,11140 78898,12581 79328,12581 79328,12708 80784,12708 80784,13781 81475,13781 81475,14230 82711,14230 82711,15695 83006,15695 83006,15935 84479,15935 84479,17023 85114,17023 85114,18332 85480,18332 85480,18794 86798,18794 86798,19621 87719,19621 87719,20964 87983,20964 87983,21736 88981,21736 88981,22800 89587,22800 89587,23867 90178,23867 90178,24657 91212,24657 91212,26069 91221,26069 91221,26769 92456,26769 92456,28143 92466,28143 92466,29304 92844,29304 92844,30131 93940,30131 93940,31209 94528,31209 94528,32510 94564,32510 94564,33582 95164,33582 95164,34788 95398,34788 95398,36002 95576,36002 95576,37113 96087,37113 96087,38310 96298,38310 96298,39518 96444,39518 96444,40649 96940,40649 96940,41756 97650,41756 97650,42969 97823,42969 97823,44226 97631,44226 97631,45435 97757,45435 97757,46669 97524,46669 97524,47877 97545,47877 97545,49067 98367,49067 98367,50290" fill="lightblue" stroke="blue" stroke-width="212" opacity="0.5"/>
  <rect x="6165" y="50270" width="88506" height="18227" fill="red" stroke="darkred" stroke-width="318" opacity="0.3"/>
  <circle cx="6165" cy="50270" r="530" fill="red"/>
  <circle cx="94671" cy="68497" r="530" fill="red"/>
  <text x="50418" y="59383" font-size="2123" fill="black" text-anchor="middle" dominant-baseline="middle" font-weight="bold">Area: 1613305596</text>
  <circle cx="97989" cy="50290" r="424" fill="darkblue"/>
  <circle cx="97989" cy="51491" r="424" fill="darkblue"/>
  <circle cx="97502" cy="51491" r="424" fill="darkblue"/>
  <circle cx="97502" cy="52723" r="424" fill="darkblue"/>
  <circle cx="97969" cy="52723" r="424" fill="darkblue"/>
  <circle cx="97969" cy="53929" r="424" fill="darkblue"/>
  <circle cx="97784" cy="53929" r="424" fill="darkblue"/>
  <circle cx="97784" cy="55111" r="424" fill="darkblue"/>
  <circle cx="97415" cy="55111" r="424" fill="darkblue"/>
  <circle cx="97415" cy="56355" r="424" fill="darkblue"/>
  <circle cx="97603" cy="56355" r="424" fill="darkblue"/>
  <circle cx="97603" cy="57620" r="424" fill="darkblue"/>
  <circle cx="97806" cy="57620" r="424" fill="darkblue"/>
  <circle cx="97806" cy="58795" r="424" fill="darkblue"/>
  <circle cx="97420" cy="58795" r="424" fill="darkblue"/>
  <circle cx="97420" cy="60036" r="424" fill="darkblue"/>
  <circle cx="97381" cy="60036" r="424" fill="darkblue"/>
  <circle cx="97381" cy="61082" r="424" fill="darkblue"/>
  <circle cx="96479" cy="61082" r="424" fill="darkblue"/>
  <circle cx="96479" cy="62403" r="424" fill="darkblue"/>
  <circle cx="96738" cy="62403" r="424" fill="darkblue"/>
  <circle cx="96738" cy="63461" r="424" fill="darkblue"/>
  <circle cx="95990" cy="63461" r="424" fill="darkblue"/>
  <circle cx="95990" cy="64680" r="424" fill="darkblue"/>
  <circle cx="95819" cy="64680" r="424" fill="darkblue"/>
  <circle cx="95819" cy="65812" r="424" fill="darkblue"/>
  <circle cx="95362" cy="65812" r="424" fill="darkblue"/>
  <circle cx="95362" cy="67051" r="424" fill="darkblue"/>
  <circle cx="95198" cy="67051" r="424" fill="darkblue"/>
  <circle cx="95198" cy="68160" r="424" fill="darkblue"/>
  <circle cx="94676" cy="68160" r="424" fill="darkblue"/>
  <circle cx="94676" cy="69290" r="424" fill="darkblue"/>
  <circle cx="94212" cy="69290" r="424" fill="darkblue"/>
  <circle cx="94212" cy="70413" r="424" fill="darkblue"/>
  <circle cx="93728" cy="70413" r="424" fill="darkblue"/>
  <circle cx="93728" cy="71204" r="424" fill="darkblue"/>
  <circle cx="92575" cy="71204" r="424" fill="darkblue"/>
  <circle cx="92575" cy="72650" r="424" fill="darkblue"/>
  <circle cx="92730" cy="72650" r="424" fill="darkblue"/>
  <circle cx="92730" cy="73331" r="424" fill="darkblue"/>
  <circle cx="91442" cy="73331" r="424" fill="darkblue"/>
  <circle cx="91442" cy="74529" r="424" fill="darkblue"/>
  <circle cx="91099" cy="74529" r="424" fill="darkblue"/>
  <circle cx="91099" cy="75554" r="424" fill="darkblue"/>
  <circle cx="90450" cy="75554" r="424" fill="darkblue"/>
  <circle cx="90450" cy="76726" r="424" fill="darkblue"/>
  <circle cx="90023" cy="76726" r="424" fill="darkblue"/>
  <circle cx="90023" cy="77816" r="424" fill="darkblue"/>
  <circle cx="89454" cy="77816" r="424" fill="darkblue"/>
  <circle cx="89454" cy="78682" r="424" fill="darkblue"/>
  <circle cx="88568" cy="78682" r="424" fill="darkblue"/>
  <circle cx="88568" cy="79549" r="424" fill="darkblue"/>
  <circle cx="87701" cy="79549" r="424" fill="darkblue"/>
  <circle cx="87701" cy="80687" r="424" fill="darkblue"/>
  <circle cx="87173" cy="80687" r="424" fill="darkblue"/>
  <circle cx="87173" cy="81723" r="424" fill="darkblue"/>
  <circle cx="86503" cy="81723" r="424" fill="darkblue"/>
  <circle cx="86503" cy="82480" r="424" fill="darkblue"/>
  <circle cx="85516" cy="82480" r="424" fill="darkblue"/>
  <circle cx="85516" cy="83576" r="424" fill="darkblue"/>
  <circle cx="84896" cy="83576" r="424" fill="darkblue"/>
  <circle cx="84896" cy="84275" r="424" fill="darkblue"/>
  <circle cx="83863" cy="84275" r="424" fill="darkblue"/>
  <circle cx="83863" cy="85339" r="424" fill="darkblue"/>
  <circle cx="83187" cy="85339" r="424" fill="darkblue"/>
  <circle cx="83187" cy="85797" r="424" fill="darkblue"/>
  <circle cx="81950" cy="85797" r="424" fill="darkblue"/>
  <circle cx="81950" cy="86483" r="424" fill="darkblue"/>
  <circle cx="80938" cy="86483" r="424" fill="darkblue"/>
  <circle cx="80938" cy="87077" r="424" fill="darkblue"/>
  <circle cx="79861" cy="87077" r="424" fill="darkblue"/>
  <circle cx="79861" cy="88209" r="424" fill="darkblue"/>
  <circle cx="79208" cy="88209" r="424" fill="darkblue"/>
  <circle cx="79208" cy="89104" r="424" fill="darkblue"/>
  <circle cx="78352" cy="89104" r="424" fill="darkblue"/>
  <circle cx="78352" cy="89637" r="424" fill="darkblue"/>
  <circle cx="77234" cy="89637" r="424" fill="darkblue"/>
  <circle cx="77234" cy="90451" r="424" fill="darkblue"/>
  <circle cx="76310" cy="90451" r="424" fill="darkblue"/>
  <circle cx="76310" cy="90829" r="424" fill="darkblue"/>
  <circle cx="75107" cy="90829" r="424" fill="darkblue"/>
  <circle cx="75107" cy="91245" r="424" fill="darkblue"/>
  <circle cx="73945" cy="91245" r="424" fill="darkblue"/>
  <circle cx="73945" cy="91916" r="424" fill="darkblue"/>
  <circle cx="72934" cy="91916" r="424" fill="darkblue"/>
  <circle cx="72934" cy="92396" r="424" fill="darkblue"/>
  <circle cx="71820" cy="92396" r="424" fill="darkblue"/>
  <circle cx="71820" cy="93211" r="424" fill="darkblue"/>
  <circle cx="70872" cy="93211" r="424" fill="darkblue"/>
  <circle cx="70872" cy="94077" r="424" fill="darkblue"/>
  <circle cx="69930" cy="94077" r="424" fill="darkblue"/>
  <circle cx="69930" cy="94527" r="424" fill="darkblue"/>
  <circle cx="68790" cy="94527" r="424" fill="darkblue"/>
  <circle cx="68790" cy="94258" r="424" fill="darkblue"/>
  <circle cx="67369" cy="94258" r="424" fill="darkblue"/>
  <circle cx="67369" cy="95368" r="424" fill="darkblue"/>
  <circle cx="66491" cy="95368" r="424" fill="darkblue"/>
  <circle cx="66491" cy="95479" r="424" fill="darkblue"/>
  <circle cx="65238" cy="95479" r="424" fill="darkblue"/>
  <circle cx="65238" cy="96120" r="424" fill="darkblue"/>
  <circle cx="64164" cy="96120" r="424" fill="darkblue"/>
  <circle cx="64164" cy="95840" r="424" fill="darkblue"/>
  <circle cx="62817" cy="95840" r="424" fill="darkblue"/>
  <circle cx="62817" cy="96910" r="424" fill="darkblue"/>
  <circle cx="61843" cy="96910" r="424" fill="darkblue"/>
  <circle cx="61843" cy="96748" r="424" fill="darkblue"/>
  <circle cx="60550" cy="96748" r="424" fill="darkblue"/>
  <circle cx="60550" cy="96930" r="424" fill="darkblue"/>
  <circle cx="59348" cy="96930" r="424" fill="darkblue"/>
  <circle cx="59348" cy="97072" r="424" fill="darkblue"/>
  <circle cx="58143" cy="97072" r="424" fill="darkblue"/>
  <circle cx="58143" cy="97949" r="424" fill="darkblue"/>
  <circle cx="57048" cy="97949" r="424" fill="darkblue"/>
  <circle cx="57048" cy="97240" r="424" fill="darkblue"/>
  <circle cx="55726" cy="97240" r="424" fill="darkblue"/>
  <circle cx="55726" cy="98112" r="424" fill="darkblue"/>
  <circle cx="54598" cy="98112" r="424" fill="darkblue"/>
  <circle cx="54598" cy="98237" r="424" fill="darkblue"/>
  <circle cx="53380" cy="98237" r="424" fill="darkblue"/>
  <circle cx="53380" cy="97914" r="424" fill="darkblue"/>
  <circle cx="52139" cy="97914" r="424" fill="darkblue"/>
  <circle cx="52139" cy="97992" r="424" fill="darkblue"/>
  <circle cx="50925" cy="97992" r="424" fill="darkblue"/>
  <circle cx="50925" cy="98410" r="424" fill="darkblue"/>
  <circle cx="49707" cy="98410" r="424" fill="darkblue"/>
  <circle cx="49707" cy="97863" r="424" fill="darkblue"/>
  <circle cx="48497" cy="97863" r="424" fill="darkblue"/>
  <circle cx="48497" cy="97485" r="424" fill="darkblue"/>
  <circle cx="47303" cy="97485" r="424" fill="darkblue"/>
  <circle cx="47303" cy="98306" r="424" fill="darkblue"/>
  <circle cx="46027" cy="98306" r="424" fill="darkblue"/>
  <circle cx="46027" cy="97967" r="424" fill="darkblue"/>
  <circle cx="44828" cy="97967" r="424" fill="darkblue"/>
  <circle cx="44828" cy="97098" r="424" fill="darkblue"/>
  <circle cx="43711" cy="97098" r="424" fill="darkblue"/>
  <circle cx="43711" cy="97154" r="424" fill="darkblue"/>
  <circle cx="42483" cy="97154" r="424" fill="darkblue"/>
  <circle cx="42483" cy="97339" r="424" fill="darkblue"/>
  <circle cx="41219" cy="97339" r="424" fill="darkblue"/>
  <circle cx="41219" cy="96502" r="424" fill="darkblue"/>
  <circle cx="40149" cy="96502" r="424" fill="darkblue"/>
  <circle cx="40149" cy="96571" r="424" fill="darkblue"/>
  <circle cx="38895" cy="96571" r="424" fill="darkblue"/>
  <circle cx="38895" cy="96615" r="424" fill="darkblue"/>
  <circle cx="37628" cy="96615" r="424" fill="darkblue"/>
  <circle cx="37628" cy="95738" r="424" fill="darkblue"/>
  <circle cx="36612" cy="95738" r="424" fill="darkblue"/>
  <circle cx="36612" cy="95467" r="424" fill="darkblue"/>
  <circle cx="35431" cy="95467" r="424" fill="darkblue"/>
  <circle cx="35431" cy="95568" r="424" fill="darkblue"/>
  <circle cx="34115" cy="95568" r="424" fill="darkblue"/>
  <circle cx="34115" cy="94799" r="424" fill="darkblue"/>
  <circle cx="33098" cy="94799" r="424" fill="darkblue"/>
  <circle cx="33098" cy="94374" r="424" fill="darkblue"/>
  <circle cx="31962" cy="94374" r="424" fill="darkblue"/>
  <circle cx="31962" cy="93971" r="424" fill="darkblue"/>
  <circle cx="30814" cy="93971" r="424" fill="darkblue"/>
  <circle cx="30814" cy="93488" r="424" fill="darkblue"/>
  <circle cx="29698" cy="93488" r="424" fill="darkblue"/>
  <circle cx="29698" cy="92987" r="424" fill="darkblue"/>
  <circle cx="28589" cy="92987" r="424" fill="darkblue"/>
  <circle cx="28589" cy="92387" r="424" fill="darkblue"/>
  <circle cx="27531" cy="92387" r="424" fill="darkblue"/>
  <circle cx="27531" cy="91964" r="424" fill="darkblue"/>
  <circle cx="26374" cy="91964" r="424" fill="darkblue"/>
  <circle cx="26374" cy="91195" r="424" fill="darkblue"/>
  <circle cx="25412" cy="91195" r="424" fill="darkblue"/>
  <circle cx="25412" cy="90587" r="424" fill="darkblue"/>
  <circle cx="24359" cy="90587" r="424" fill="darkblue"/>
  <circle cx="24359" cy="90142" r="424" fill="darkblue"/>
  <circle cx="23193" cy="90142" r="424" fill="darkblue"/>
  <circle cx="23193" cy="88876" r="424" fill="darkblue"/>
  <circle cx="22590" cy="88876" r="424" fill="darkblue"/>
  <circle cx="22590" cy="88559" r="424" fill="darkblue"/>
  <circle cx="21324" cy="88559" r="424" fill="darkblue"/>
  <circle cx="21324" cy="87802" r="424" fill="darkblue"/>
  <circle cx="20371" cy="87802" r="424" fill="darkblue"/>
  <circle cx="20371" cy="86713" r="424" fill="darkblue"/>
  <circle cx="19692" cy="86713" r="424" fill="darkblue"/>
  <circle cx="19692" cy="86217" r="424" fill="darkblue"/>
  <circle cx="18525" cy="86217" r="424" fill="darkblue"/>
  <circle cx="18525" cy="85067" r="424" fill="darkblue"/>
  <circle cx="17930" cy="85067" r="424" fill="darkblue"/>
  <circle cx="17930" cy="84389" r="424" fill="darkblue"/>
  <circle cx="16911" cy="84389" r="424" fill="darkblue"/>
  <circle cx="16911" cy="83742" r="424" fill="darkblue"/>
  <circle cx="15846" cy="83742" r="424" fill="darkblue"/>
  <circle cx="15846" cy="82958" r="424" fill="darkblue"/>
  <circle cx="14904" cy="82958" r="424" fill="darkblue"/>
  <circle cx="14904" cy="81974" r="424" fill="darkblue"/>
  <circle cx="14175" cy="81974" r="424" fill="darkblue"/>
  <circle cx="14175" cy="81240" r="424" fill="darkblue"/>
  <circle cx="13160" cy="81240" r="424" fill="darkblue"/>
  <circle cx="13160" cy="80274" r="424" fill="darkblue"/>
  <circle cx="12409" cy="80274" r="424" fill="darkblue"/>
  <circle cx="12409" cy="79076" r="424" fill="darkblue"/>
  <circle cx="11962" cy="79076" r="424" fill="darkblue"/>
  <circle cx="11962" cy="78077" r="424" fill="darkblue"/>
  <circle cx="11274" cy="78077" r="424" fill="darkblue"/>
  <circle cx="11274" cy="77102" r="424" fill="darkblue"/>
  <circle cx="10554" cy="77102" r="424" fill="darkblue"/>
  <circle cx="10554" cy="76169" r="424" fill="darkblue"/>
  <circle cx="9765" cy="76169" r="424" fill="darkblue"/>
  <circle cx="9765" cy="75200" r="424" fill="darkblue"/>
  <circle cx="9019" cy="75200" r="424" fill="darkblue"/>
  <circle cx="9019" cy="74195" r="424" fill="darkblue"/>
  <circle cx="8323" cy="74195" r="424" fill="darkblue"/>
  <circle cx="8323" cy="72908" r="424" fill="darkblue"/>
  <circle cx="8132" cy="72908" r="424" fill="darkblue"/>
  <circle cx="8132" cy="72167" r="424" fill="darkblue"/>
  <circle cx="6929" cy="72167" r="424" fill="darkblue"/>
  <circle cx="6929" cy="70969" r="424" fill="darkblue"/>
  <circle cx="6588" cy="70969" r="424" fill="darkblue"/>
  <circle cx="6588" cy="69949" r="424" fill="darkblue"/>
  <circle cx="5879" cy="69949" r="424" fill="darkblue"/>
  <circle cx="5879" cy="68497" r="424" fill="darkblue"/>
  <circle cx="6165" cy="68497" r="424" fill="darkblue"/>
  <circle cx="6165" cy="67407" r="424" fill="darkblue"/>
  <circle cx="5643" cy="67407" r="424" fill="darkblue"/>
  <circle cx="5643" cy="66510" r="424" fill="darkblue"/>
  <circle cx="4579" cy="66510" r="424" fill="darkblue"/>
  <circle cx="4579" cy="65176" r="424" fill="darkblue"/>
  <circle cx="4704" cy="65176" r="424" fill="darkblue"/>
  <circle cx="4704" cy="64177" r="424" fill="darkblue"/>
  <circle cx="3836" cy="64177" r="424" fill="darkblue"/>
  <circle cx="3836" cy="62896" r="424" fill="darkblue"/>
  <circle cx="3875" cy="62896" r="424" fill="darkblue"/>
  <circle cx="3875" cy="61817" r="424" fill="darkblue"/>
  <circle cx="3194" cy="61817" r="424" fill="darkblue"/>
  <circle cx="3194" cy="60482" r="424" fill="darkblue"/>
  <circle cx="3554" cy="60482" r="424" fill="darkblue"/>
  <circle cx="3554" cy="59411" r="424" fill="darkblue"/>
  <circle cx="2752" cy="59411" r="424" fill="darkblue"/>
  <circle cx="2752" cy="58208" r="424" fill="darkblue"/>
  <circle cx="2547" cy="58208" r="424" fill="darkblue"/>
  <circle cx="2547" cy="56980" r="424" fill="darkblue"/>
  <circle cx="2517" cy="56980" r="424" fill="darkblue"/>
  <circle cx="2517" cy="55823" r="424" fill="darkblue"/>
  <circle cx="1958" cy="55823" r="424" fill="darkblue"/>
  <circle cx="1958" cy="54524" r="424" fill="darkblue"/>
  <circle cx="2667" cy="54524" r="424" fill="darkblue"/>
  <circle cx="2667" cy="53339" r="424" fill="darkblue"/>
  <circle cx="2335" cy="53339" r="424" fill="darkblue"/>
  <circle cx="2335" cy="52126" r="424" fill="darkblue"/>
  <circle cx="2375" cy="52126" r="424" fill="darkblue"/>
  <circle cx="2375" cy="50925" r="424" fill="darkblue"/>
  <circle cx="2009" cy="50925" r="424" fill="darkblue"/>
  <circle cx="2009" cy="50270" r="424" fill="darkblue"/>
  <circle cx="94671" cy="50270" r="424" fill="darkblue"/>
  <circle cx="94671" cy="48487" r="424" fill="darkblue"/>
  <circle cx="1828" cy="48487" r="424" fill="darkblue"/>
  <circle cx="1828" cy="47303" r="424" fill="darkblue"/>
  <circle cx="2513" cy="47303" r="424" fill="darkblue"/>
  <circle cx="2513" cy="46074" r="424" fill="darkblue"/>
  <circle cx="2271" cy="46074" r="424" fill="darkblue"/>
  <circle cx="2271" cy="44890" r="424" fill="darkblue"/>
  <circle cx="2603" cy="44890" r="424" fill="darkblue"/>
  <circle cx="2603" cy="43602" r="424" fill="darkblue"/>
  <circle cx="2079" cy="43602" r="424" fill="darkblue"/>
  <circle cx="2079" cy="42477" r="424" fill="darkblue"/>
  <circle cx="2804" cy="42477" r="424" fill="darkblue"/>
  <circle cx="2804" cy="41220" r="424" fill="darkblue"/>
  <circle cx="2668" cy="41220" r="424" fill="darkblue"/>
  <circle cx="2668" cy="40118" r="424" fill="darkblue"/>
  <circle cx="3347" cy="40118" r="424" fill="darkblue"/>
  <circle cx="3347" cy="38850" r="424" fill="darkblue"/>
  <circle cx="3239" cy="38850" r="424" fill="darkblue"/>
  <circle cx="3239" cy="37808" r="424" fill="darkblue"/>
  <circle cx="4061" cy="37808" r="424" fill="darkblue"/>
  <circle cx="4061" cy="36600" r="424" fill="darkblue"/>
  <circle cx="4219" cy="36600" r="424" fill="darkblue"/>
  <circle cx="4219" cy="35259" r="424" fill="darkblue"/>
  <circle cx="3995" cy="35259" r="424" fill="darkblue"/>
  <circle cx="3995" cy="34127" r="424" fill="darkblue"/>
  <circle cx="4466" cy="34127" r="424" fill="darkblue"/>
  <circle cx="4466" cy="33015" r="424" fill="darkblue"/>
  <circle cx="4977" cy="33015" r="424" fill="darkblue"/>
  <circle cx="4977" cy="32062" r="424" fill="darkblue"/>
  <circle cx="5871" cy="32062" r="424" fill="darkblue"/>
  <circle cx="5871" cy="30606" r="424" fill="darkblue"/>
  <circle cx="5552" cy="30606" r="424" fill="darkblue"/>
  <circle cx="5552" cy="29497" r="424" fill="darkblue"/>
  <circle cx="6079" cy="29497" r="424" fill="darkblue"/>
  <circle cx="6079" cy="28474" r="424" fill="darkblue"/>
  <circle cx="6780" cy="28474" r="424" fill="darkblue"/>
  <circle cx="6780" cy="27581" r="424" fill="darkblue"/>
  <circle cx="7708" cy="27581" r="424" fill="darkblue"/>
  <circle cx="7708" cy="26356" r="424" fill="darkblue"/>
  <circle cx="8004" cy="26356" r="424" fill="darkblue"/>
  <circle cx="8004" cy="25160" r="424" fill="darkblue"/>
  <circle cx="8381" cy="25160" r="424" fill="darkblue"/>
  <circle cx="8381" cy="24143" r="424" fill="darkblue"/>
  <circle cx="9070" cy="24143" r="424" fill="darkblue"/>
  <circle cx="9070" cy="23088" r="424" fill="darkblue"/>
  <circle cx="9700" cy="23088" r="424" fill="darkblue"/>
  <circle cx="9700" cy="22283" r="424" fill="darkblue"/>
  <circle cx="10688" cy="22283" r="424" fill="darkblue"/>
  <circle cx="10688" cy="21165" r="424" fill="darkblue"/>
  <circle cx="11226" cy="21165" r="424" fill="darkblue"/>
  <circle cx="11226" cy="20507" r="424" fill="darkblue"/>
  <circle cx="12371" cy="20507" r="424" fill="darkblue"/>
  <circle cx="12371" cy="19452" r="424" fill="darkblue"/>
  <circle cx="12995" cy="19452" r="424" fill="darkblue"/>
  <circle cx="12995" cy="18580" r="424" fill="darkblue"/>
  <circle cx="13845" cy="18580" r="424" fill="darkblue"/>
  <circle cx="13845" cy="17660" r="424" fill="darkblue"/>
  <circle cx="14637" cy="17660" r="424" fill="darkblue"/>
  <circle cx="14637" cy="16652" r="424" fill="darkblue"/>
  <circle cx="15341" cy="16652" r="424" fill="darkblue"/>
  <circle cx="15341" cy="16010" r="424" fill="darkblue"/>
  <circle cx="16419" cy="16010" r="424" fill="darkblue"/>
  <circle cx="16419" cy="15192" r="424" fill="darkblue"/>
  <circle cx="17311" cy="15192" r="424" fill="darkblue"/>
  <circle cx="17311" cy="14185" r="424" fill="darkblue"/>
  <circle cx="18034" cy="14185" r="424" fill="darkblue"/>
  <circle cx="18034" cy="13675" r="424" fill="darkblue"/>
  <circle cx="19196" cy="13675" r="424" fill="darkblue"/>
  <circle cx="19196" cy="12791" r="424" fill="darkblue"/>
  <circle cx="20033" cy="12791" r="424" fill="darkblue"/>
  <circle cx="20033" cy="12200" r="424" fill="darkblue"/>
  <circle cx="21105" cy="12200" r="424" fill="darkblue"/>
  <circle cx="21105" cy="10904" r="424" fill="darkblue"/>
  <circle cx="21654" cy="10904" r="424" fill="darkblue"/>
  <circle cx="21654" cy="10593" r="424" fill="darkblue"/>
  <circle cx="22924" cy="10593" r="424" fill="darkblue"/>
  <circle cx="22924" cy="9648" r="424" fill="darkblue"/>
  <circle cx="23754" cy="9648" r="424" fill="darkblue"/>
  <circle cx="23754" cy="9111" r="424" fill="darkblue"/>
  <circle cx="24855" cy="9111" r="424" fill="darkblue"/>
  <circle cx="24855" cy="8201" r="424" fill="darkblue"/>
  <circle cx="25734" cy="8201" r="424" fill="darkblue"/>
  <circle cx="25734" cy="7917" r="424" fill="darkblue"/>
  <circle cx="26974" cy="7917" r="424" fill="darkblue"/>
  <circle cx="26974" cy="7749" r="424" fill="darkblue"/>
  <circle cx="28254" cy="7749" r="424" fill="darkblue"/>
  <circle cx="28254" cy="6483" r="424" fill="darkblue"/>
  <circle cx="28979" cy="6483" r="424" fill="darkblue"/>
  <circle cx="28979" cy="5864" r="424" fill="darkblue"/>
  <circle cx="30043" cy="5864" r="424" fill="darkblue"/>
  <circle cx="30043" cy="5557" r="424" fill="darkblue"/>
  <circle cx="31245" cy="5557" r="424" fill="darkblue"/>
  <circle cx="31245" cy="5054" r="424" fill="darkblue"/>
  <circle cx="32361" cy="5054" r="424" fill="darkblue"/>
  <circle cx="32361" cy="5264" r="424" fill="darkblue"/>
  <circle cx="33738" cy="5264" r="424" fill="darkblue"/>
  <circle cx="33738" cy="4569" r="424" fill="darkblue"/>
  <circle cx="34777" cy="4569" r="424" fill="darkblue"/>
  <circle cx="34777" cy="4441" r="424" fill="darkblue"/>
  <circle cx="36008" cy="4441" r="424" fill="darkblue"/>
  <circle cx="36008" cy="3722" r="424" fill="darkblue"/>
  <circle cx="37060" cy="3722" r="424" fill="darkblue"/>
  <circle cx="37060" cy="3583" r="424" fill="darkblue"/>
  <circle cx="38281" cy="3583" r="424" fill="darkblue"/>
  <circle cx="38281" cy="3084" r="424" fill="darkblue"/>
  <circle cx="39411" cy="3084" r="424" fill="darkblue"/>
  <circle cx="39411" cy="2546" r="424" fill="darkblue"/>
  <circle cx="40546" cy="2546" r="424" fill="darkblue"/>
  <circle cx="40546" cy="2210" r="424" fill="darkblue"/>
  <circle cx="41732" cy="2210" r="424" fill="darkblue"/>
  <circle cx="41732" cy="2116" r="424" fill="darkblue"/>
  <circle cx="42960" cy="2116" r="424" fill="darkblue"/>
  <circle cx="42960" cy="2271" r="424" fill="darkblue"/>
  <circle cx="44214" cy="2271" r="424" fill="darkblue"/>
  <circle cx="44214" cy="2396" r="424" fill="darkblue"/>
  <circle cx="45450" cy="2396" r="424" fill="darkblue"/>
  <circle cx="45450" cy="2291" r="424" fill="darkblue"/>
  <circle cx="46657" cy="2291" r="424" fill="darkblue"/>
  <circle cx="46657" cy="2476" r="424" fill="darkblue"/>
  <circle cx="47878" cy="2476" r="424" fill="darkblue"/>
  <circle cx="47878" cy="1871" r="424" fill="darkblue"/>
  <circle cx="49071" cy="1871" r="424" fill="darkblue"/>
  <circle cx="49071" cy="2077" r="424" fill="darkblue"/>
  <circle cx="50289" cy="2077" r="424" fill="darkblue"/>
  <circle cx="50289" cy="2199" r="424" fill="darkblue"/>
  <circle cx="51500" cy="2199" r="424" fill="darkblue"/>
  <circle cx="51500" cy="1876" r="424" fill="darkblue"/>
  <circle cx="52732" cy="1876" r="424" fill="darkblue"/>
  <circle cx="52732" cy="2410" r="424" fill="darkblue"/>
  <circle cx="53913" cy="2410" r="424" fill="darkblue"/>
  <circle cx="53913" cy="2140" r="424" fill="darkblue"/>
  <circle cx="55159" cy="2140" r="424" fill="darkblue"/>
  <circle cx="55159" cy="2707" r="424" fill="darkblue"/>
  <circle cx="56314" cy="2707" r="424" fill="darkblue"/>
  <circle cx="56314" cy="2740" r="424" fill="darkblue"/>
  <circle cx="57532" cy="2740" r="424" fill="darkblue"/>
  <circle cx="57532" cy="3112" r="424" fill="darkblue"/>
  <circle cx="58696" cy="3112" r="424" fill="darkblue"/>
  <circle cx="58696" cy="3343" r="424" fill="darkblue"/>
  <circle cx="59882" cy="3343" r="424" fill="darkblue"/>
  <circle cx="59882" cy="2828" r="424" fill="darkblue"/>
  <circle cx="61247" cy="2828" r="424" fill="darkblue"/>
  <circle cx="61247" cy="3779" r="424" fill="darkblue"/>
  <circle cx="62266" cy="3779" r="424" fill="darkblue"/>
  <circle cx="62266" cy="3854" r="424" fill="darkblue"/>
  <circle cx="63506" cy="3854" r="424" fill="darkblue"/>
  <circle cx="63506" cy="4047" r="424" fill="darkblue"/>
  <circle cx="64723" cy="4047" r="424" fill="darkblue"/>
  <circle cx="64723" cy="4846" r="424" fill="darkblue"/>
  <circle cx="65739" cy="4846" r="424" fill="darkblue"/>
  <circle cx="65739" cy="5010" r="424" fill="darkblue"/>
  <circle cx="66972" cy="5010" r="424" fill="darkblue"/>
  <circle cx="66972" cy="5441" r="424" fill="darkblue"/>
  <circle cx="68112" cy="5441" r="424" fill="darkblue"/>
  <circle cx="68112" cy="5931" r="424" fill="darkblue"/>
  <circle cx="69227" cy="5931" r="424" fill="darkblue"/>
  <circle cx="69227" cy="6172" r="424" fill="darkblue"/>
  <circle cx="70459" cy="6172" r="424" fill="darkblue"/>
  <circle cx="70459" cy="6919" r="424" fill="darkblue"/>
  <circle cx="71456" cy="6919" r="424" fill="darkblue"/>
  <circle cx="71456" cy="7579" r="424" fill="darkblue"/>
  <circle cx="72486" cy="7579" r="424" fill="darkblue"/>
  <circle cx="72486" cy="7942" r="424" fill="darkblue"/>
  <circle cx="73678" cy="7942" r="424" fill="darkblue"/>
  <circle cx="73678" cy="8504" r="424" fill="darkblue"/>
  <circle cx="74766" cy="8504" r="424" fill="darkblue"/>
  <circle cx="74766" cy="9270" r="424" fill="darkblue"/>
  <circle cx="75730" cy="9270" r="424" fill="darkblue"/>
  <circle cx="75730" cy="9968" r="424" fill="darkblue"/>
  <circle cx="76731" cy="9968" r="424" fill="darkblue"/>
  <circle cx="76731" cy="10498" r="424" fill="darkblue"/>
  <circle cx="77850" cy="10498" r="424" fill="darkblue"/>
  <circle cx="77850" cy="11140" r="424" fill="darkblue"/>
  <circle cx="78898" cy="11140" r="424" fill="darkblue"/>
  <circle cx="78898" cy="12581" r="424" fill="darkblue"/>
  <circle cx="79328" cy="12581" r="424" fill="darkblue"/>
  <circle cx="79328" cy="12708" r="424" fill="darkblue"/>
  <circle cx="80784" cy="12708" r="424" fill="darkblue"/>
  <circle cx="80784" cy="13781" r="424" fill="darkblue"/>
  <circle cx="81475" cy="13781" r="424" fill="darkblue"/>
  <circle cx="81475" cy="14230" r="424" fill="darkblue"/>
  <circle cx="82711" cy="14230" r="424" fill="darkblue"/>
  <circle cx="82711" cy="15695" r="424" fill="darkblue"/>
  <circle cx="83006" cy="15695" r="424" fill="darkblue"/>
  <circle cx="83006" cy="15935" r="424" fill="darkblue"/>
  <circle cx="84479" cy="15935" r="424" fill="darkblue"/>
  <circle cx="84479" cy="17023" r="424" fill="darkblue"/>
  <circle cx="85114" cy="17023" r="424" fill="darkblue"/>
  <circle cx="85114" cy="18332" r="424" fill="darkblue"/>
  <circle cx="85480" cy="18332" r="424" fill="darkblue"/>
  <circle cx="85480" cy="18794" r="424" fill="darkblue"/>
  <circle cx="86798" cy="18794" r="424" fill="darkblue"/>
  <circle cx="86798" cy="19621" r="424" fill="darkblue"/>
  <circle cx="87719" cy="19621" r="424" fill="darkblue"/>
  <circle cx="87719" cy="20964" r="424" fill="darkblue"/>
  <circle cx="87983" cy="20964" r="424" fill="darkblue"/>
  <circle cx="87983" cy="21736" r="424" fill="darkblue"/>
  <circle cx="88981" cy="21736" r="424" fill="darkblue"/>
  <circle cx="88981" cy="22800" r="424" fill="darkblue"/>
  <circle cx="89587" cy="22800" r="424" fill="darkblue"/>
  <circle cx="89587" cy="23867" r="424" fill="darkblue"/>
  <circle cx="90178" cy="23867" r="424" fill="darkblue"/>
  <circle cx="90178" cy="24657" r="424" fill="darkblue"/>
  <circle cx="91212" cy="24657" r="424" fill="darkblue"/>
  <circle cx="91212" cy="26069" r="424" fill="darkblue"/>
  <circle cx="91221" cy="26069" r="424" fill="darkblue"/>
  <circle cx="91221" cy="26769" r="424" fill="darkblue"/>
  <circle cx="92456" cy="26769" r="424" fill="darkblue"/>
  <circle cx="92456" cy="28143" r="424" fill="darkblue"/>
  <circle cx="92466" cy="28143" r="424" fill="darkblue"/>
  <circle cx="92466" cy="29304" r="424" fill="darkblue"/>
  <circle cx="92844" cy="29304" r="424" fill="darkblue"/>
  <circle cx="92844" cy="30131" r="424" fill="darkblue"/>
  <circle cx="93940" cy="30131" r="424" fill="darkblue"/>
  <circle cx="93940" cy="31209" r="424" fill="darkblue"/>
  <circle cx="94528" cy="31209" r="424" fill="darkblue"/>
  <circle cx="94528" cy="32510" r="424" fill="darkblue"/>
  <circle cx="94564" cy="32510" r="424" fill="darkblue"/>
  <circle cx="94564" cy="33582" r="424" fill="darkblue"/>
  <circle cx="95164" cy="33582" r="424" fill="darkblue"/>
  <circle cx="95164" cy="34788" r="424" fill="darkblue"/>
  <circle cx="95398" cy="34788" r="424" fill="darkblue"/>
  <circle cx="95398" cy="36002" r="424" fill="darkblue"/>
  <circle cx="95576" cy="36002" r="424" fill="darkblue"/>
  <circle cx="95576" cy="37113" r="424" fill="darkblue"/>
  <circle cx="96087" cy="37113" r="424" fill="darkblue"/>
  <circle cx="96087" cy="38310" r="424" fill="darkblue"/>
  <circle cx="96298" cy="38310" r="424" fill="darkblue"/>
  <circle cx="96298" cy="39518" r="424" fill="darkblue"/>
  <circle cx="96444" cy="39518" r="424" fill="darkblue"/>
  <circle cx="96444" cy="40649" r="424" fill="darkblue"/>
  <circle cx="96940" cy="40649" r="424" fill="darkblue"/>
  <circle cx="96940" cy="41756" r="424" fill="darkblue"/>
  <circle cx="97650" cy="41756" r="424" fill="darkblue"/>
  <circle cx="97650" cy="42969" r="424" fill="darkblue"/>
  <circle cx="97823" cy="42969" r="424" fill="darkblue"/>
  <circle cx="97823" cy="44226" r="424" fill="darkblue"/>
  <circle cx="97631" cy="44226" r="424" fill="darkblue"/>
  <circle cx="97631" cy="45435" r="424" fill="darkblue"/>
  <circle cx="97757" cy="45435" r="424" fill="darkblue"/>
  <circle cx="97757" cy="46669" r="424" fill="darkblue"/>
  <circle cx="97524" cy="46669" r="424" fill="darkblue"/>
  <circle cx="97524" cy="47877" r="424" fill="darkblue"/>
  <circle cx="97545" cy="47877" r="424" fill="darkblue"/>
  <circle cx="97545" cy="49067" r="424" fill="darkblue"/>
  <circle cx="98367" cy="49067" r="424" fill="darkblue"/>
  <circle cx="98367" cy="50290" r="424" fill="darkblue"/>
</svg>
